<svg xmlns="http://www.w3.org/2000/svg" width="900" height="600"><g stroke-linejoin="bevel"><path fill="#277297" stroke="#277297" d="m426 393-219 40 204 167Z"/><path fill="#277297" stroke="#277297" d="m207 433 27 167h177ZM426 393 255 195l-48 238Z"/><path fill="#246688" stroke="#246688" d="m426 393 14-211-185 13ZM0 253v143l207 37Z"/><path fill="#15384f" stroke="#15384f" d="M207 433 0 600h234Z"/><path fill="#246688" stroke="#246688" d="M0 396v204l207-167Z"/><path fill="#081a28" stroke="#081a28" d="M411 600h291L426 393ZM426 393l206-184-192-27Z"/><path fill="#205a7a" stroke="#205a7a" d="m702 600 22-205-298-2Z"/><path fill="#0c2435" stroke="#0c2435" d="M255 195 0 253l207 180Z"/><path fill="#297ea6" stroke="#297ea6" d="m724 395-92-186-206 184Z"/><path fill="#19435d" stroke="#19435d" d="M434 0 255 195l185-13Z"/><path fill="#297ea6" stroke="#297ea6" d="M434 0H247l8 195Z"/><path fill="#246688" stroke="#246688" d="M255 195 0 0v253Z"/><path fill="#00101c" stroke="#00101c" d="M643 0H434l6 182Z"/><path fill="#1d4e6b" stroke="#1d4e6b" d="M900 600V383l-176 12Z"/><path fill="#00101c" stroke="#00101c" d="m724 395 176-229-268 43Z"/><path fill="#277297" stroke="#277297" d="M632 209 643 0 440 182Z"/><path fill="#112e42" stroke="#112e42" d="M702 600h198L724 395Z"/><path fill="#15384f" stroke="#15384f" d="M900 166 643 0l-11 209Z"/><path fill="#246688" stroke="#246688" d="M247 0H0l255 195Z"/><path fill="#081a28" stroke="#081a28" d="M900 383V166L724 395Z"/><path fill="#205a7a" stroke="#205a7a" d="M900 166V0H643Z"/></g></svg>