<svg id="visual" viewBox="0 0 900 600" width="900" height="600" xmlns="http://www.w3.org/2000/svg" xmlns:xlink="http://www.w3.org/1999/xlink" version="1.1"><g stroke-width="1" stroke-linejoin="bevel"><path d="M426 393L207 433L411 600Z" fill="#277297" stroke="#277297"></path><path d="M207 433L234 600L411 600Z" fill="#277297" stroke="#277297"></path><path d="M426 393L255 195L207 433Z" fill="#277297" stroke="#277297"></path><path d="M426 393L440 182L255 195Z" fill="#246688" stroke="#246688"></path><path d="M0 253L0 396L207 433Z" fill="#246688" stroke="#246688"></path><path d="M207 433L0 600L234 600Z" fill="#15384f" stroke="#15384f"></path><path d="M0 396L0 600L207 433Z" fill="#246688" stroke="#246688"></path><path d="M411 600L702 600L426 393Z" fill="#081a28" stroke="#081a28"></path><path d="M426 393L632 209L440 182Z" fill="#081a28" stroke="#081a28"></path><path d="M702 600L724 395L426 393Z" fill="#205a7a" stroke="#205a7a"></path><path d="M255 195L0 253L207 433Z" fill="#0c2435" stroke="#0c2435"></path><path d="M724 395L632 209L426 393Z" fill="#297ea6" stroke="#297ea6"></path><path d="M434 0L255 195L440 182Z" fill="#19435d" stroke="#19435d"></path><path d="M434 0L247 0L255 195Z" fill="#297ea6" stroke="#297ea6"></path><path d="M255 195L0 0L0 253Z" fill="#246688" stroke="#246688"></path><path d="M643 0L434 0L440 182Z" fill="#00101c" stroke="#00101c"></path><path d="M900 600L900 383L724 395Z" fill="#1d4e6b" stroke="#1d4e6b"></path><path d="M724 395L900 166L632 209Z" fill="#00101c" stroke="#00101c"></path><path d="M632 209L643 0L440 182Z" fill="#277297" stroke="#277297"></path><path d="M702 600L900 600L724 395Z" fill="#112e42" stroke="#112e42"></path><path d="M900 166L643 0L632 209Z" fill="#15384f" stroke="#15384f"></path><path d="M247 0L0 0L255 195Z" fill="#246688" stroke="#246688"></path><path d="M900 383L900 166L724 395Z" fill="#081a28" stroke="#081a28"></path><path d="M900 166L900 0L643 0Z" fill="#205a7a" stroke="#205a7a"></path></g></svg>